<svg xmlns="http://www.w3.org/2000/svg" width="22.465" height="26.209" viewBox="0 0 22.465 26.209"><defs><style>.a,.b{fill:#0075c1;}.b{stroke:#0075c1;font-size:7px;font-family:SFUIDisplay-Ultralight, SF UI Display;font-weight:100;letter-spacing:0.2em;}</style></defs><g transform="translate(0 0)"><path class="a" d="M24.041,7.761a3.4,3.4,0,0,1,.7,1.112,3.375,3.375,0,0,1,.292,1.287V27.008a1.4,1.4,0,0,1-1.4,1.4H3.975a1.4,1.4,0,0,1-1.4-1.4V3.608a1.4,1.4,0,0,1,1.4-1.4h13.1a3.376,3.376,0,0,1,1.287.293,3.4,3.4,0,0,1,1.112.7ZM17.547,4.193v5.5h5.5a1.6,1.6,0,0,0-.322-.6L18.147,4.514a1.6,1.6,0,0,0-.6-.322ZM23.163,26.54V11.564H17.079a1.4,1.4,0,0,1-1.4-1.4V4.076H4.443V26.54H23.163Z" transform="translate(-2.571 -2.203)"/><text class="b" transform="translate(11.433 22)"><tspan x="-7.587" y="0">CSV</tspan></text><path class="a" d="M24.614,10.125H11.886a.6.6,0,0,0-.636.563v1.125a.6.6,0,0,0,.636.563H24.614a.6.6,0,0,0,.636-.562V10.688A.6.6,0,0,0,24.614,10.125Zm-7-5.625H11.886a.6.6,0,0,0-.636.563V6.188a.6.6,0,0,0,.636.563h5.727a.6.6,0,0,0,.636-.562V5.063A.6.6,0,0,0,17.614,4.5Z" transform="translate(-7.817 0.729)"/></g></svg>