<?xml version="1.0" encoding="utf-8"?>
<!-- Generator: Adobe Illustrator 25.2.1, SVG Export Plug-In . SVG Version: 6.00 Build 0)  -->
<svg version="1.1" id="light" xmlns="http://www.w3.org/2000/svg" xmlns:xlink="http://www.w3.org/1999/xlink" x="0px" y="0px"
	 viewBox="0 0 512 512" style="enable-background:new 0 0 512 512;" xml:space="preserve">

<g>
	<g>
		<path d="M256,510C115.9,510,2,396.1,2,256S115.9,2,256,2s254,113.9,254,254S396.1,510,256,510z M256,23.2
			C127.6,23.2,23.2,127.6,23.2,256S127.6,488.8,256,488.8S488.8,384.4,488.8,256S384.4,23.2,256,23.2z"/>
	</g>
	<g>
		<path d="M382.9,195.9H129.1c-5.7,0-10.4-4.6-10.4-10.4v0c0-5.7,4.6-10.4,10.4-10.4h253.9c5.7,0,10.4,4.6,10.4,10.4v0
			C393.3,191.3,388.7,195.9,382.9,195.9z"/>
		<path d="M382.9,266.4H129.1c-5.7,0-10.4-4.6-10.4-10.4v0c0-5.7,4.6-10.4,10.4-10.4h253.9c5.7,0,10.4,4.6,10.4,10.4v0
			C393.3,261.7,388.7,266.4,382.9,266.4z"/>
		<path d="M382.9,336.8H129.1c-5.7,0-10.4-4.6-10.4-10.4l0,0c0-5.7,4.6-10.4,10.4-10.4h253.9c5.7,0,10.4,4.6,10.4,10.4l0,0
			C393.3,332.2,388.7,336.8,382.9,336.8z"/>
	</g>
</g>
</svg>
